<?xml version="1.0" encoding="UTF-8"?>
<svg width="48px" height="30px" viewBox="0 0 48 30" version="1.1" xmlns="http://www.w3.org/2000/svg" xmlns:xlink="http://www.w3.org/1999/xlink">
    <defs>
        <path d="M27.7428212,43 C22.420092,43 17.0662087,40.7060727 11.8870917,36.9213905 C10.1099247,35.6227111 8.47856841,34.2347273 7.02437662,32.8452965 C6.14500706,32.0050887 5.51272661,31.3427776 5.24187676,31.0320949 C3.59639255,29.3680833 3.60293133,26.6636368 5.16143038,25.0538564 C5.51272661,24.6572224 6.14500706,23.9949113 7.02437662,23.1547035 C8.47856841,21.7652727 10.1099247,20.3772889 11.8870917,19.0786095 C17.0662087,15.2939273 22.420092,13 27.7428212,13 C33.0655503,13 38.4194336,15.2939273 43.5985506,19.0786095 C45.3757176,20.3772889 47.0070739,21.7652727 48.4612657,23.1547035 C49.3406352,23.9949113 49.9729157,24.6572224 50.2437655,24.9679051 C51.8892498,26.6319167 51.882711,29.3363632 50.3242119,30.9461436 C49.9729157,31.3427776 49.3406352,32.0050887 48.4612657,32.8452965 C47.0070739,34.2347273 45.3757176,35.6227111 43.5985506,36.9213905 C38.4194336,40.7060727 33.0655503,43 27.7428212,43 Z M27.7428212,38.7142857 C31.9932738,38.7142857 36.5572579,36.758799 41.0699329,33.4611246 C42.6848932,32.2809792 44.1751098,31.0130793 45.5005917,29.7466264 C46.2890263,28.9933039 46.8399604,28.4162026 47.1791804,28.0362546 C47.193101,28.02185 47.1932067,27.9781307 47.1159441,27.895399 C46.8399604,27.5837974 46.2890263,27.0066961 45.5005917,26.2533736 C44.1751098,24.9869207 42.6848932,23.7190208 41.0699329,22.5388754 C36.5572579,19.241201 31.9932738,17.2857143 27.7428212,17.2857143 C23.4923686,17.2857143 18.9283844,19.241201 14.4157094,22.5388754 C12.8007492,23.7190208 11.3105325,24.9869207 9.98505062,26.2533736 C9.196616,27.0066961 8.64568186,27.5837974 8.3064619,27.9637454 C8.29254134,27.97815 8.29243564,28.0218693 8.36969824,28.104601 C8.64568186,28.4162026 9.196616,28.9933039 9.98505062,29.7466264 C11.3105325,31.0130793 12.8007492,32.2809792 14.4157094,33.4611246 C18.9283844,36.758799 23.4923686,38.7142857 27.7428212,38.7142857 Z M27.7428212,30.1428571 C28.9262885,30.1428571 29.8856783,29.1834673 29.8856783,28 C29.8856783,26.8165327 28.9262885,25.8571429 27.7428212,25.8571429 C26.5593538,25.8571429 25.599964,26.8165327 25.599964,28 C25.599964,29.1834673 26.5593538,30.1428571 27.7428212,30.1428571 Z M27.7428212,34.4285714 C24.1924192,34.4285714 21.3142497,31.550402 21.3142497,28 C21.3142497,24.449598 24.1924192,21.5714286 27.7428212,21.5714286 C31.2932231,21.5714286 34.1713926,24.449598 34.1713926,28 C34.1713926,31.550402 31.2932231,34.4285714 27.7428212,34.4285714 Z" id="eye-1"></path>
    </defs>
    <g id="AD" stroke="none" stroke-width="1" fill="none" fill-rule="evenodd">
        <g id="Landing" transform="translate(-1086.000000, -4026.000000)">
            <g id="Statistics-#2" transform="translate(0.000000, 3699.000000)">
                <g id="Columns" transform="translate(160.000000, 262.000000)">
                    <g id="Col" transform="translate(780.000000, 0.000000)">
                        <g id="Icon-/-Simple-Outlined-/-*Icon-Pack" transform="translate(141.000000, 51.000000)">
                            <g id="Icon-/-Simple-Outlined-/-Eye" transform="translate(1.000000, 1.000000)">
                                <mask id="mask-eye-2" fill="white">
                                    <use xlink:href="#eye-1"></use>
                                </mask>

                                <g id="Base-/-Fill-/-Primary" mask="url(#mask-eye-2)" fill="url(#linearGradient-1)" fill-rule="evenodd" stroke="#FFFFFF" stroke-width="1">
                                    <rect id="Fill" x="0.5" y="0.5" width="55" height="55"></rect>
                                </g>
                            </g>
                        </g>
                    </g>
                </g>
            </g>
        </g>
    </g>
</svg>
