<svg width="99" height="80" xmlns="http://www.w3.org/2000/svg" xmlns:xlink="http://www.w3.org/1999/xlink"><defs>
  <linearGradient x1="94.988%" y1="100%" x2="0%" y2="0%" id="a"><stop stop-color="#E4AB1F" offset="0%"/><stop stop-color="#FFA944" offset="29.887%"/><stop stop-color="#F97051" offset="73.47%"/><stop stop-color="#D76950" offset="100%"/></linearGradient><path d="M96.924 48.77c-5.257 18.68-18.223 32.24-30.829 32.24a17.75 17.75 0 0 1-3.009-.26 2.033 2.033 0 0 1-1.349-.9 1.985 1.985 0 0 1-.234-1.6l2.594-9.22a2.023 2.023 0 0 1 2.013-1.45h.206c4.675 0 13.218-6.96 17.573-22.43.173-.61.336-1.24.493-1.89a22.866 22.866 0 0 1-16 1.49C56.53 41.413 49.627 29.1 52.965 17.248 56.302 5.395 68.615-1.507 80.467 1.83c7.858 2.18 13.765 8.66 16.635 18.24 2.587 8.64 2.523 19.11-.178 28.7zM14.136 81a17.732 17.732 0 0 1-3.008-.25 2.033 2.033 0 0 1-1.349-.9 1.993 1.993 0 0 1-.234-1.6l2.6-9.22a2.009 2.009 0 0 1 2.013-1.45h.2c4.674 0 13.219-6.96 17.574-22.43.173-.61.337-1.24.492-1.89a22.864 22.864 0 0 1-16 1.49C4.642 41.356-2.189 29.085 1.134 17.283 4.458 5.48 16.688-1.423 28.51 1.83c7.856 2.18 13.763 8.66 16.634 18.24 2.59 8.64 2.526 19.11-.175 28.7C39.709 67.45 26.742 81 14.136 81z" id="quotes"/></defs><use fill="url(#a)" xlink:href="#quotes" transform="translate(0 -1)" fill-rule="evenodd" opacity=".7"/></svg>
