<svg width="30" height="30" xmlns="http://www.w3.org/2000/svg"><defs><linearGradient x1="94.988%" y1="100%" x2="0%" y2="0%" id="a"><stop stop-color="#E4AB1F" offset="0%"/><stop stop-color="#FFA944" offset="29.887%"/><stop stop-color="#F97051" offset="73.47%"/><stop stop-color="#D76950" offset="100%"/></linearGradient></defs><path d="M6 0h18a6 6 0 0 1 6 6v18a6 6 0 0 1-6 6H6a6 6 0 0 1-6-6V6a6 6 0 0 1 6-6zm0 3a3 3 0 0 0-3 3v18a3 3 0 0 0 3 3h18a3 3 0 0 0 3-3V6a3 3 0 0 0-3-3H6zm9 14.742l5.304-5.303a1.5 1.5 0 0 1 2.121 2.121l-6.364 6.365a1.5 1.5 0 0 1-2.121 0L7.575 14.56a1.5 1.5 0 0 1 2.121-2.12L15 17.742z" fill="url(#a)" fill-rule="evenodd"/></svg>
