<?xml version="1.0" encoding="UTF-8"?>
<svg width="37px" height="37px" viewBox="0 0 37 37" version="1.1" xmlns="http://www.w3.org/2000/svg" xmlns:xlink="http://www.w3.org/1999/xlink">
    <defs>
        <path d="M17,29 C21.2871871,29.0000001 25.2487114,26.712813 27.392305,23.0000001 C29.5358986,19.2871871 29.5358986,14.7128129 27.392305,10.9999999 C25.2487114,7.287187 21.2871871,4.99999994 17,5 C10.3725831,5.0000001 5.00000018,10.3725831 5.00000018,17 C5.00000018,23.6274169 10.3725831,28.9999999 17,29 Z M29.64,26.812 L36.8,33.972 C37.3195457,34.4745192 37.5275225,35.2182674 37.3439955,35.9173891 C37.1604685,36.6165109 36.6139984,37.1622086 35.9146178,37.3447466 C35.2152371,37.5272845 34.4717838,37.318256 33.97,36.798 L26.81,29.638 C20.1369569,34.8179371 10.5866969,33.9177364 4.99910161,27.5821203 C-0.588493712,21.2465043 -0.288033793,11.6586187 5.68529244,5.68529244 C11.6586187,-0.288033793 21.2465043,-0.588493712 27.5821203,4.99910161 C33.9177364,10.5866969 34.8179371,20.1369569 29.638,26.81 L29.64,26.812 Z" id="path-2"></path>
    </defs>
    <g id="Symbols" stroke="none" stroke-width="1" fill="none" fill-rule="evenodd">
        <g id="search" transform="translate(-1.000000, -1.000000)" fill-rule="nonzero">
            <g id="Shape">
                <use fill="url(#linearGradient-1)" xlink:href="#path-2"></use>
            </g>
        </g>
    </g>
</svg>
